<svg xmlns="http://www.w3.org/2000/svg" viewBox="0 0 320 240" role="img" aria-label="Kartu pekerja dengan tanda tambah dan kurang"><path d="M283.0,128.0 M262.4,156.0 Q241.8,183.9 203.4,200.7 Q165.0,217.4 125.4,201.6 Q85.7,185.8 62.8,156.9 Q39.9,128.0 64.9,100.6 Q89.9,73.3 127.5,56.8 Q165.0,40.3 205.1,55.0 Q245.1,69.6 264.1,98.8 Q283.0,128.0 262.4,156.0 Z" fill="#FFFFFF" opacity="0.85"/><ellipse cx="170" cy="212" rx="120" ry="7" fill="#99E2D5" opacity=".55"/><g transform="translate(116 96)"><rect x="-38" y="-30" width="76" height="60" rx="12" fill="#FFFFFF" stroke="#BFDAD6" stroke-width="1.5"/><circle cx="-14" cy="-6" r="10" fill="#D99A6C"/><path d="M-28,20 a14,11 0 0 1 28,0" fill="#0D9488"/><path d="M6,-10 h20 M6,-1 h14 M6,8 h18" stroke="#D7E8E5" stroke-width="3.5" stroke-linecap="round"/><circle cx="34" cy="-26" r="12" fill="#0D9488"/><path d="M28,-26 h12 M34,-32 v12" stroke="#FFFFFF" stroke-width="3" stroke-linecap="round"/></g><g transform="translate(214 128)"><rect x="-38" y="-30" width="76" height="60" rx="12" fill="#FFFFFF" stroke="#BFDAD6" stroke-width="1.5"/><circle cx="-14" cy="-6" r="10" fill="#F2C29B"/><path d="M-28,20 a14,11 0 0 1 28,0" fill="#F2C94C"/><path d="M6,-10 h20 M6,-1 h14 M6,8 h18" stroke="#D7E8E5" stroke-width="3.5" stroke-linecap="round"/><circle cx="34" cy="-26" r="12" fill="#F2A07B"/><path d="M28,-26 h12" stroke="#FFFFFF" stroke-width="3" stroke-linecap="round"/></g><g transform="translate(126 170)"><rect x="-38" y="-30" width="76" height="60" rx="12" fill="#FFFFFF" stroke="#BFDAD6" stroke-width="1.5"/><circle cx="-14" cy="-6" r="10" fill="#B7784F"/><path d="M-28,20 a14,11 0 0 1 28,0" fill="#24505A"/><path d="M6,-10 h20 M6,-1 h14 M6,8 h18" stroke="#D7E8E5" stroke-width="3.5" stroke-linecap="round"/><circle cx="34" cy="-26" r="12" fill="#0D9488"/><path d="M28,-26 h12 M34,-32 v12" stroke="#FFFFFF" stroke-width="3" stroke-linecap="round"/></g><path d="M168,92 Q196,86 206,100" stroke="#14B8A6" stroke-width="2.5" fill="none" stroke-dasharray="5 6" stroke-linecap="round"/><path transform="translate(62.0 58.0) scale(1.00)" d="M0,-9 C1.2,-2.4 2.4,-1.2 9,0 C2.4,1.2 1.2,2.4 0,9 C-1.2,2.4 -2.4,1.2 -9,0 C-2.4,-1.2 -1.2,-2.4 0,-9Z" fill="#F2C94C"/><path transform="translate(280.0 64.0) scale(0.70)" d="M0,-9 C1.2,-2.4 2.4,-1.2 9,0 C2.4,1.2 1.2,2.4 0,9 C-1.2,2.4 -2.4,1.2 -9,0 C-2.4,-1.2 -1.2,-2.4 0,-9Z" fill="#14B8A6"/><circle cx="286.0" cy="186.0" r="3.5" fill="#F2C94C" opacity="1"/></svg>
