<svg xmlns="http://www.w3.org/2000/svg" viewBox="0 0 320 240" role="img" aria-label="Empat segmen peserta: penerima upah, bukan penerima upah, jasa konstruksi, dan pekerja migran"><path d="M287.7,130.0 M266.3,159.1 Q244.8,188.2 204.9,205.6 Q165.0,223.0 123.8,206.5 Q82.6,190.1 58.7,160.0 Q34.9,130.0 60.9,101.5 Q86.9,73.1 126.0,55.9 Q165.0,38.8 206.7,54.0 Q248.3,69.3 268.0,99.6 Q287.7,130.0 266.3,159.1 Z" fill="#FFFFFF" opacity="0.85"/><ellipse cx="161" cy="214" rx="139" ry="7" fill="#99E2D5" opacity=".55"/><g transform="translate(52.0 212.0) scale(0.700)"><ellipse cx="0" cy="0" rx="26" ry="5" fill="#0B4D47" opacity=".13"/><rect x="-15.5" y="-62" width="13.5" height="60" rx="6" fill="#24505A"/><rect x="2" y="-62" width="13.5" height="60" rx="6" fill="#24505A"/><path d="M-19,0 Q-19,-7 -12,-7 L-3,-7 Q-1,-7 -1,-4 L-1,0Z" fill="#1E3533"/><path d="M19,0 Q19,-7 12,-7 L3,-7 Q1,-7 1,-4 L1,0Z" fill="#1E3533"/><path d="M-21,-99 Q-21,-114 -7,-115 L7,-115 Q21,-114 21,-99 L19,-58 Q19,-54 15,-54 L-15,-54 Q-19,-54 -19,-58Z" fill="#FFFFFF"/><path d="M-3.5,-114 L3.5,-114 L2.5,-108 L4.5,-80 L0,-74 L-4.5,-80 L-2.5,-108Z" fill="#0D9488"/><path d="M-8,-114 L0,-92 L8,-114" stroke="#087F75" stroke-width="2.4" fill="none"/><rect x="-6" y="-93" width="12" height="15" rx="2.5" fill="#FFFFFF"/><rect x="-3.5" y="-89" width="7" height="2.5" rx="1" fill="#0D9488"/><rect x="-5" y="-124" width="10" height="11" rx="3" fill="#D99A6C"/><circle cx="0" cy="-135" r="15" fill="#D99A6C"/><path d="M-15.5,-137 C-17,-156 16,-158 15.5,-139 C12,-146 3,-148 -4,-145 C-9,-143 -13,-141 -15.5,-137Z" fill="#23302F"/><path d="M-17.0,-104.0 L-22.0,-82.0 L-23.0,-61.0" stroke="#FFFFFF" stroke-width="11" fill="none" stroke-linecap="round" stroke-linejoin="round"/><circle cx="-23.0" cy="-61.0" r="5.6" fill="#D99A6C"/><path d="M17.0,-104.0 L31.0,-86.0 L19.0,-70.0" stroke="#FFFFFF" stroke-width="11" fill="none" stroke-linecap="round" stroke-linejoin="round"/><circle cx="19.0" cy="-70.0" r="5.6" fill="#D99A6C"/></g><g transform="translate(122.0 214.0) scale(0.740)"><ellipse cx="0" cy="0" rx="26" ry="5" fill="#0B4D47" opacity=".13"/><rect x="-15.5" y="-62" width="13.5" height="60" rx="6" fill="#6A4E3A"/><rect x="2" y="-62" width="13.5" height="60" rx="6" fill="#6A4E3A"/><path d="M-19,0 Q-19,-7 -12,-7 L-3,-7 Q-1,-7 -1,-4 L-1,0Z" fill="#1E3533"/><path d="M19,0 Q19,-7 12,-7 L3,-7 Q1,-7 1,-4 L1,0Z" fill="#1E3533"/><path d="M-21,-99 Q-21,-114 -7,-115 L7,-115 Q21,-114 21,-99 L19,-58 Q19,-54 15,-54 L-15,-54 Q-19,-54 -19,-58Z" fill="#F2A07B"/><rect x="-5" y="-124" width="10" height="11" rx="3" fill="#B7784F"/><circle cx="0" cy="-135" r="15" fill="#B7784F"/><path d="M-15.5,-137 C-17,-156 16,-158 15.5,-139 C12,-146 3,-148 -4,-145 C-9,-143 -13,-141 -15.5,-137Z" fill="#23302F"/><path d="M-34,-139 L34,-139 Q30,-136 0,-136 Q-30,-136 -34,-139Z" fill="#D9A92E"/><path d="M-32,-139 L0,-165 L32,-139Z" fill="#F2C94C"/><path d="M-12,-149 L12,-149" stroke="#D9A92E" stroke-width="2" stroke-linecap="round"/><path d="M-17.0,-104.0 L-22.0,-82.0 L-23.0,-61.0" stroke="#F2A07B" stroke-width="11" fill="none" stroke-linecap="round" stroke-linejoin="round"/><circle cx="-23.0" cy="-61.0" r="5.6" fill="#B7784F"/><path d="M17.0,-104.0 L22.0,-82.0 L23.0,-61.0" stroke="#F2A07B" stroke-width="11" fill="none" stroke-linecap="round" stroke-linejoin="round"/><circle cx="23.0" cy="-61.0" r="5.6" fill="#B7784F"/></g><g transform="translate(196.0 214.0) scale(0.740)"><ellipse cx="0" cy="0" rx="26" ry="5" fill="#0B4D47" opacity=".13"/><rect x="-15.5" y="-62" width="13.5" height="60" rx="6" fill="#24505A"/><rect x="2" y="-62" width="13.5" height="60" rx="6" fill="#24505A"/><path d="M-19,0 Q-19,-7 -12,-7 L-3,-7 Q-1,-7 -1,-4 L-1,0Z" fill="#1E3533"/><path d="M19,0 Q19,-7 12,-7 L3,-7 Q1,-7 1,-4 L1,0Z" fill="#1E3533"/><path d="M-21,-99 Q-21,-114 -7,-115 L7,-115 Q21,-114 21,-99 L19,-58 Q19,-54 15,-54 L-15,-54 Q-19,-54 -19,-58Z" fill="#FFFFFF"/><path d="M-19,-100 L-7,-114 L-3,-114 L-3,-55 L-15,-55 Q-19,-55 -19,-59Z" fill="#F2C94C"/><path d="M19,-100 L7,-114 L3,-114 L3,-55 L15,-55 Q19,-55 19,-59Z" fill="#F2C94C"/><rect x="-19" y="-78" width="16" height="4" fill="#FFFFFF"/><rect x="3" y="-78" width="16" height="4" fill="#FFFFFF"/><rect x="-5" y="-124" width="10" height="11" rx="3" fill="#D99A6C"/><circle cx="0" cy="-135" r="15" fill="#D99A6C"/><path d="M-15.5,-137 C-17,-156 16,-158 15.5,-139 C12,-146 3,-148 -4,-145 C-9,-143 -13,-141 -15.5,-137Z" fill="#23302F"/><path d="M-18,-138 C-18,-160 18,-160 18,-138Z" fill="#F2C94C"/><rect x="-21" y="-140" width="42" height="5" rx="2.5" fill="#D9A92E"/><path d="M0,-158 L0,-141" stroke="#D9A92E" stroke-width="3"/><path d="M-17.0,-104.0 L-31.0,-86.0 L-19.0,-70.0" stroke="#FFFFFF" stroke-width="11" fill="none" stroke-linecap="round" stroke-linejoin="round"/><circle cx="-19.0" cy="-70.0" r="5.6" fill="#D99A6C"/><path d="M17.0,-104.0 L22.0,-82.0 L23.0,-61.0" stroke="#FFFFFF" stroke-width="11" fill="none" stroke-linecap="round" stroke-linejoin="round"/><circle cx="23.0" cy="-61.0" r="5.6" fill="#D99A6C"/></g><g transform="translate(266.0 212.0) scale(0.700)"><ellipse cx="0" cy="0" rx="26" ry="5" fill="#0B4D47" opacity=".13"/><rect x="18" y="-58" width="24" height="34" rx="5" fill="#F2C94C"/><rect x="25" y="-64" width="10" height="7" rx="3" fill="none" stroke="#D9A92E" stroke-width="2.5"/><rect x="-15.5" y="-62" width="13.5" height="60" rx="6" fill="#1E3533"/><rect x="2" y="-62" width="13.5" height="60" rx="6" fill="#1E3533"/><path d="M-19,0 Q-19,-7 -12,-7 L-3,-7 Q-1,-7 -1,-4 L-1,0Z" fill="#1E3533"/><path d="M19,0 Q19,-7 12,-7 L3,-7 Q1,-7 1,-4 L1,0Z" fill="#1E3533"/><path d="M-21,-99 Q-21,-114 -7,-115 L7,-115 Q21,-114 21,-99 L19,-58 Q19,-54 15,-54 L-15,-54 Q-19,-54 -19,-58Z" fill="#0D9488"/><rect x="-5" y="-124" width="10" height="11" rx="3" fill="#F2C29B"/><path d="M-19,-133 C-19,-157 19,-157 19,-133 L23,-104 Q0,-96 -23,-104Z" fill="#087F75"/><ellipse cx="1" cy="-132" rx="11.5" ry="13" fill="#F2C29B"/><path d="M-17.0,-104.0 L-22.0,-82.0 L-23.0,-61.0" stroke="#0D9488" stroke-width="11" fill="none" stroke-linecap="round" stroke-linejoin="round"/><circle cx="-23.0" cy="-61.0" r="5.6" fill="#F2C29B"/><path d="M17.0,-104.0 L22.0,-82.0 L23.0,-61.0" stroke="#0D9488" stroke-width="11" fill="none" stroke-linecap="round" stroke-linejoin="round"/><circle cx="23.0" cy="-61.0" r="5.6" fill="#F2C29B"/></g><rect x="36.0" y="30" width="32" height="22" rx="11" fill="#0D9488"/><text x="52" y="45.5" font-family="Poppins,Arial,sans-serif" font-size="12" font-weight="700" fill="#FFFFFF" text-anchor="middle">PU</text><rect x="102.0" y="30" width="40" height="22" rx="11" fill="#FFFFFF"/><text x="122" y="45.5" font-family="Poppins,Arial,sans-serif" font-size="12" font-weight="700" fill="#0D9488" text-anchor="middle">BPU</text><rect x="168.0" y="30" width="56" height="22" rx="11" fill="#0D9488"/><text x="196" y="45.5" font-family="Poppins,Arial,sans-serif" font-size="12" font-weight="700" fill="#FFFFFF" text-anchor="middle">Jakon</text><rect x="246.0" y="30" width="40" height="22" rx="11" fill="#FFFFFF"/><text x="266" y="45.5" font-family="Poppins,Arial,sans-serif" font-size="12" font-weight="700" fill="#0D9488" text-anchor="middle">PMI</text></svg>
